<?xml version="1.0" standalone="no"?>
<!DOCTYPE svg PUBLIC "-//W3C//DTD SVG 20010904//EN"
 "http://www.w3.org/TR/2001/REC-SVG-20010904/DTD/svg10.dtd">
<svg version="1.0" xmlns="http://www.w3.org/2000/svg"
 width="1616.000000pt" height="1616.000000pt" viewBox="0 0 1616.000000 1616.000000"
 preserveAspectRatio="xMidYMid meet">
<metadata>
Created by potrace 1.14, written by Peter Selinger 2001-2017
</metadata>
<g transform="translate(0.000000,1616.000000) scale(0.100000,-0.100000)"
fill="#000000" stroke="none">
<path d="M8601 11824 c-20 -26 -29 -84 -13 -84 61 0 182 -24 206 -42 19 -14
54 -23 109 -30 50 -5 93 -16 113 -29 18 -11 61 -24 95 -30 34 -5 78 -18 98
-28 20 -10 60 -24 89 -30 29 -6 69 -19 90 -30 20 -10 62 -24 92 -30 30 -7 65
-18 77 -26 12 -9 46 -20 75 -26 29 -6 69 -20 89 -29 19 -10 62 -23 95 -29 33
-6 85 -20 115 -31 35 -12 112 -23 209 -31 194 -16 426 0 535 36 38 13 90 26
113 29 24 4 61 15 82 26 20 10 58 24 83 31 26 6 51 17 57 25 7 7 34 20 61 29
27 9 49 21 49 26 0 6 20 19 44 30 25 11 47 28 51 38 3 11 12 22 20 25 20 7 19
26 0 26 -9 0 -24 14 -33 31 -17 30 -18 31 -75 25 -33 -3 -69 -14 -85 -25 -15
-11 -47 -25 -72 -31 -25 -7 -52 -18 -61 -26 -9 -8 -42 -19 -74 -25 -32 -6 -74
-19 -93 -29 -19 -10 -64 -22 -101 -26 -36 -3 -95 -16 -131 -27 -87 -28 -343
-30 -403 -4 -22 9 -78 23 -126 31 -49 8 -101 21 -117 29 -17 9 -59 21 -94 27
-36 6 -75 18 -87 26 -13 8 -54 21 -93 29 -39 8 -80 21 -93 29 -12 8 -49 19
-82 25 -33 5 -80 18 -105 29 -25 11 -74 23 -110 27 -36 3 -78 15 -95 24 -19
12 -68 22 -137 29 -67 6 -116 16 -130 26 -17 12 -47 16 -119 16 -93 0 -98 -1
-118 -26z"/>
<path d="M6344 11726 c-8 -21 -28 -27 -122 -35 -54 -6 -89 -14 -101 -25 -10
-9 -46 -21 -81 -27 -34 -5 -74 -18 -88 -28 -15 -11 -45 -22 -67 -26 -22 -4
-53 -15 -70 -25 -16 -10 -55 -23 -85 -29 -30 -7 -61 -18 -70 -26 -15 -13 -137
-46 -184 -49 -29 -2 -46 39 -46 110 0 56 -3 65 -37 108 -49 59 -75 61 -151 10
-2 -1 3 -27 12 -58 14 -46 14 -64 5 -101 -19 -76 16 -207 64 -238 12 -8 40
-17 63 -20 51 -8 202 10 229 27 11 7 46 21 78 30 32 9 72 26 90 36 18 11 39
20 48 20 9 0 41 14 72 30 31 17 65 30 74 30 10 0 45 14 78 30 33 16 68 30 78
30 10 0 37 11 60 24 23 14 68 29 99 35 32 6 66 19 77 30 13 13 40 22 78 26 32
3 65 7 73 8 18 3 27 82 11 101 -17 20 -179 22 -187 2z"/>
<path d="M7665 11639 c-93 -4 -201 -12 -239 -18 -38 -7 -153 -18 -255 -26
-102 -8 -208 -21 -236 -29 -27 -9 -95 -20 -150 -26 -55 -6 -125 -20 -155 -31
-30 -10 -87 -23 -127 -29 -40 -5 -89 -18 -110 -29 -21 -10 -60 -22 -88 -26
-27 -4 -66 -15 -86 -25 -20 -11 -58 -25 -85 -31 -27 -7 -62 -20 -79 -30 -16
-9 -46 -20 -65 -24 -19 -4 -48 -15 -65 -25 -16 -10 -52 -24 -80 -31 -27 -7
-60 -19 -72 -27 -12 -7 -53 -22 -90 -32 -37 -10 -88 -26 -113 -35 -35 -13 -70
-16 -155 -13 -108 3 -112 4 -150 35 -71 59 -102 107 -115 180 -7 38 -17 76
-22 86 -11 22 -60 23 -93 1 -13 -8 -47 -22 -75 -29 -29 -8 -59 -20 -69 -28 -9
-8 -42 -22 -73 -31 -44 -13 -58 -21 -58 -35 0 -11 -2 -26 -6 -34 -3 -9 6 -19
28 -28 56 -23 58 -28 33 -103 -30 -88 -58 -117 -114 -118 -23 0 -45 2 -48 5
-3 4 -20 0 -38 -8 -29 -11 -36 -11 -52 1 -28 21 -42 17 -63 -18 -30 -49 -33
-117 -21 -391 6 -138 16 -454 21 -702 6 -247 15 -503 20 -567 5 -64 14 -221
20 -350 7 -158 15 -237 23 -245 18 -19 149 -51 254 -63 50 -6 122 -20 160 -30
116 -34 154 -24 194 48 11 20 31 53 44 72 13 19 35 50 47 68 13 19 32 44 43
57 11 14 34 41 50 61 51 62 228 238 270 269 22 17 43 34 47 39 9 13 89 54 213
111 33 15 95 28 182 39 120 15 145 15 285 1 174 -17 211 -23 253 -41 17 -6 65
-17 107 -24 43 -6 101 -20 130 -30 31 -11 123 -25 222 -34 93 -9 199 -21 235
-26 119 -17 537 -12 761 10 371 36 345 31 489 101 102 50 131 68 131 84 0 36
37 82 108 135 52 39 75 64 92 101 13 27 27 49 32 49 5 0 20 -24 33 -53 19 -45
35 -61 94 -101 39 -26 90 -72 113 -101 34 -41 56 -58 103 -76 33 -13 59 -28
58 -34 -1 -5 -24 -21 -49 -35 -40 -21 -50 -33 -62 -70 -27 -83 -99 -160 -177
-189 -42 -15 -54 -26 -75 -66 -14 -27 -30 -50 -36 -52 -7 -2 -22 21 -34 51
-14 32 -32 58 -45 64 -15 7 -25 23 -29 46 -6 33 -10 36 -41 36 -19 0 -37 -5
-40 -10 -4 -6 -25 -20 -48 -32 -47 -23 -84 -51 -208 -157 -61 -52 -309 -298
-414 -412 -59 -63 -194 -223 -280 -333 -33 -42 -67 -84 -75 -94 -9 -9 -29 -37
-45 -61 -17 -24 -40 -58 -53 -75 -37 -51 -76 -106 -102 -146 -14 -21 -38 -57
-55 -80 -49 -70 -73 -107 -172 -269 -12 -20 -34 -58 -49 -86 -14 -27 -30 -52
-34 -55 -4 -3 -17 -25 -29 -50 -12 -25 -37 -72 -56 -105 -18 -33 -38 -71 -44
-85 -6 -14 -17 -36 -26 -50 -8 -14 -22 -41 -30 -60 -9 -19 -22 -46 -31 -60 -8
-14 -18 -34 -21 -45 -4 -11 -19 -44 -35 -73 -15 -30 -28 -59 -28 -66 0 -6 -14
-38 -30 -71 -16 -33 -30 -66 -30 -74 0 -8 -11 -33 -24 -55 -13 -23 -27 -56
-31 -75 -4 -19 -18 -54 -31 -79 -13 -25 -24 -54 -24 -65 0 -11 -11 -43 -24
-71 -13 -28 -27 -69 -31 -91 -4 -22 -16 -57 -27 -78 -10 -21 -24 -63 -29 -95
-6 -31 -17 -69 -26 -85 -8 -16 -21 -63 -29 -105 -8 -42 -23 -99 -33 -127 -10
-27 -22 -77 -26 -109 -4 -33 -15 -85 -25 -117 -10 -32 -24 -100 -29 -151 -6
-51 -18 -118 -26 -148 -8 -30 -20 -107 -25 -170 -6 -63 -19 -184 -30 -268 -11
-84 -20 -209 -20 -277 0 -108 2 -125 18 -133 10 -6 695 -11 1639 -13 1504 -4
1623 -3 1639 13 16 15 15 24 -2 130 -17 103 -19 175 -19 793 0 599 2 692 17
780 10 55 22 172 27 260 6 88 17 183 26 210 8 28 20 104 25 170 6 66 19 149
30 185 10 36 24 108 30 160 7 52 19 110 26 129 8 19 21 79 29 133 9 55 22 115
30 133 7 19 19 68 24 109 6 41 19 96 30 123 10 26 24 81 30 121 6 41 18 86 25
101 8 14 20 55 26 91 7 36 21 81 30 100 10 19 22 58 29 87 6 28 20 67 31 85
11 18 20 42 20 54 0 12 11 42 25 68 14 26 30 67 36 91 6 25 17 50 25 56 8 6
19 30 25 52 6 22 22 57 35 76 13 20 24 41 24 48 0 12 42 102 76 163 7 14 25
48 38 75 14 28 30 57 36 65 5 8 17 31 25 50 9 19 29 58 45 85 16 28 37 66 47
85 10 19 28 48 40 63 13 16 23 34 23 41 0 7 12 28 26 47 14 19 32 48 40 64 19
40 54 95 82 129 12 16 22 34 22 41 0 7 12 28 28 48 15 20 41 59 57 87 17 28
42 67 57 87 15 19 30 43 33 54 4 10 10 19 15 19 5 0 19 17 30 38 21 38 57 92
85 127 21 27 61 92 79 131 9 17 22 34 31 37 8 4 15 13 15 21 0 8 18 36 41 63
57 69 77 93 109 138 65 89 125 168 171 225 11 14 37 48 57 75 20 28 61 79 90
115 58 71 65 80 153 190 32 41 70 87 84 102 32 35 34 83 3 99 -13 7 -31 23
-41 36 -10 12 -25 23 -32 23 -8 0 -19 8 -24 18 -5 10 -30 28 -55 41 -25 12
-46 27 -46 32 0 5 -11 9 -25 9 -30 0 -32 -11 -5 -35 11 -10 20 -24 20 -31 0
-12 25 -43 80 -100 27 -29 25 -58 -5 -72 -14 -6 -25 -19 -25 -27 0 -13 -9 -15
-52 -10 -29 4 -66 12 -82 18 -23 8 -31 8 -34 -1 -7 -21 -38 -13 -128 34 -80
41 -184 124 -184 147 0 5 11 18 25 29 14 11 25 25 25 32 0 7 11 23 25 36 14
13 25 27 25 32 0 14 -77 9 -90 -7 -7 -8 -34 -21 -61 -29 -27 -8 -59 -22 -72
-31 -12 -8 -40 -20 -62 -26 -22 -6 -49 -19 -61 -30 -11 -10 -43 -23 -71 -28
-27 -6 -65 -19 -84 -29 -19 -11 -61 -23 -94 -27 -33 -4 -79 -15 -103 -25 -98
-44 -603 -46 -715 -4 -23 9 -74 22 -114 30 -40 7 -89 22 -110 32 -21 11 -60
23 -88 26 -27 4 -64 16 -82 26 -18 10 -58 24 -89 29 -32 6 -68 18 -81 26 -12
8 -54 22 -93 30 -39 8 -80 21 -93 29 -12 8 -53 20 -92 27 -38 6 -88 19 -110
29 -22 10 -77 23 -123 29 -45 7 -98 19 -117 27 -19 7 -109 21 -201 29 -92 9
-185 20 -208 25 -41 9 -431 32 -491 28 -16 0 -106 -5 -200 -9z m3395 -409 c28
-57 41 -100 51 -163 6 -39 17 -87 25 -106 8 -19 21 -78 29 -131 8 -53 21 -112
29 -131 8 -19 19 -77 26 -129 10 -87 9 -100 -9 -147 -19 -53 -42 -87 -93 -144
-16 -16 -28 -34 -28 -39 0 -18 -18 -10 -82 35 -35 24 -78 51 -95 59 -18 8 -33
19 -33 24 0 5 -18 17 -40 27 -22 10 -47 26 -56 36 -10 11 -23 19 -30 19 -7 0
-25 11 -41 24 -15 13 -45 31 -66 39 -20 9 -37 20 -37 25 0 6 -18 17 -39 25
-22 9 -51 28 -65 42 -14 14 -30 25 -36 25 -6 0 -28 11 -48 25 -20 14 -44 25
-52 25 -9 0 -29 13 -44 29 -16 16 -39 32 -51 35 -17 4 -25 15 -27 34 -2 21 -9
28 -30 30 l-28 3 0 135 0 134 28 1 c156 4 261 17 302 36 26 12 84 26 139 32
60 7 100 16 112 27 10 9 50 22 89 30 39 7 83 23 97 34 31 24 92 24 103 0z"/>
<path d="M3155 11572 c-22 -1 -65 -9 -96 -17 -31 -8 -127 -19 -215 -24 -97 -6
-176 -16 -203 -25 -24 -9 -87 -21 -140 -27 -53 -6 -109 -18 -124 -26 -16 -8
-64 -20 -107 -28 -43 -8 -91 -20 -107 -28 -15 -8 -55 -20 -88 -27 -33 -6 -70
-18 -82 -26 -11 -7 -43 -19 -70 -25 -26 -6 -61 -20 -78 -29 -16 -10 -50 -24
-75 -30 -25 -7 -61 -20 -80 -30 -19 -9 -57 -22 -84 -29 -27 -7 -58 -19 -70
-27 -25 -17 -87 -19 -104 -2 -7 7 -12 35 -12 63 0 75 -39 160 -92 203 l-43 34
-94 -5 c-76 -5 -97 -9 -112 -26 -10 -11 -36 -23 -56 -26 -21 -4 -59 -17 -84
-31 -26 -13 -67 -27 -93 -30 -32 -5 -50 -13 -61 -30 -10 -16 -28 -25 -60 -29
-42 -7 -45 -9 -45 -39 1 -50 31 -81 79 -80 23 1 47 7 56 14 8 6 49 16 92 21
43 6 96 18 118 28 22 11 70 22 106 25 l66 6 6 -115 c3 -67 10 -122 17 -131 10
-11 9 -14 -7 -14 -23 0 -33 38 -33 123 0 63 -24 87 -86 87 -37 0 -47 -4 -51
-19 -5 -19 -30 -31 -69 -31 -12 0 -39 -12 -60 -26 -21 -15 -55 -31 -74 -36
-19 -6 -44 -18 -55 -28 -11 -10 -42 -28 -69 -39 -40 -18 -46 -24 -36 -36 6 -8
28 -19 48 -26 55 -17 56 -23 13 -47 -22 -12 -48 -37 -59 -56 -14 -23 -30 -36
-52 -41 -18 -4 -50 -23 -73 -44 -75 -67 -72 -38 -74 -681 -2 -607 5 -800 32
-830 13 -14 15 -58 16 -291 0 -241 6 -370 20 -418 5 -20 -27 -26 -34 -7 -13
34 -57 334 -55 376 3 77 -12 1309 -18 1420 -3 58 -11 134 -19 170 -15 72 -41
235 -51 320 -5 45 -12 60 -38 82 -31 27 -31 27 -13 56 22 39 22 58 -2 74 -14
10 -17 18 -10 28 12 20 11 30 -1 30 -5 0 -10 -7 -10 -15 0 -9 -9 -15 -25 -15
-18 0 -27 -7 -32 -27 -5 -16 -7 -226 -7 -468 2 -349 5 -462 18 -545 27 -173
36 -310 46 -716 8 -329 12 -389 25 -404 34 -37 36 -226 5 -366 -16 -71 4 -139
56 -190 30 -30 54 -45 81 -49 21 -3 72 -14 113 -25 41 -11 116 -25 165 -30 50
-6 124 -20 165 -32 58 -17 103 -22 200 -22 l125 -1 43 35 c23 19 45 46 49 60
3 14 17 45 30 69 12 24 23 50 23 57 0 7 8 15 19 19 10 3 21 18 24 33 3 15 18
42 34 60 56 63 220 232 226 232 3 0 20 13 37 29 60 54 72 63 108 78 21 8 44
21 52 29 33 29 235 63 312 53 162 -21 279 -42 328 -59 30 -10 87 -24 126 -29
39 -6 90 -18 115 -26 81 -29 660 -61 904 -50 77 3 145 2 152 -2 30 -21 -20
-89 -232 -318 -31 -34 -54 -62 -108 -131 -46 -60 -78 -101 -112 -144 -16 -22
-41 -55 -55 -75 -14 -19 -50 -69 -80 -109 -30 -41 -64 -89 -75 -107 -31 -51
-58 -93 -79 -125 -11 -16 -29 -45 -41 -64 -12 -19 -30 -48 -41 -64 -24 -37
-66 -109 -95 -161 -12 -22 -36 -67 -55 -100 -18 -33 -44 -83 -58 -112 -14 -28
-29 -54 -35 -57 -5 -4 -12 -19 -16 -36 -3 -16 -14 -39 -24 -52 -10 -13 -24
-41 -31 -63 -7 -22 -21 -50 -31 -63 -10 -13 -21 -37 -24 -55 -4 -18 -17 -48
-30 -67 -12 -19 -26 -51 -29 -71 -4 -21 -15 -48 -26 -62 -11 -13 -22 -44 -26
-67 -4 -24 -15 -51 -24 -60 -10 -10 -23 -42 -29 -71 -7 -30 -21 -63 -31 -74
-11 -12 -24 -44 -30 -73 -5 -29 -18 -64 -29 -80 -10 -15 -22 -46 -25 -69 -3
-23 -17 -63 -31 -89 -14 -26 -25 -61 -25 -79 0 -17 -11 -53 -24 -80 -14 -27
-30 -80 -36 -119 -6 -39 -18 -82 -26 -94 -9 -13 -22 -67 -30 -119 -8 -52 -21
-108 -30 -124 -8 -17 -20 -72 -25 -122 -6 -51 -19 -120 -29 -155 -11 -34 -24
-122 -30 -195 -6 -73 -17 -160 -25 -194 -19 -82 -38 -397 -33 -542 4 -114 5
-118 36 -157 17 -21 46 -51 64 -65 l33 -26 1716 -4 1716 -4 41 41 c50 50 68
109 58 197 -7 62 -19 320 -32 650 -11 284 23 1061 50 1149 8 25 19 115 25 200
5 89 16 173 26 201 9 26 22 105 30 175 7 70 20 144 29 164 9 21 21 81 26 133
5 52 17 112 26 133 9 20 22 79 29 129 8 51 21 107 30 125 8 18 20 63 25 101 6
38 19 90 30 115 11 26 24 75 29 109 5 34 17 76 27 94 9 19 23 60 31 93 7 33
20 67 28 76 8 8 19 37 25 64 6 27 19 61 29 75 10 14 22 42 26 61 4 19 17 51
30 70 13 19 26 49 30 67 3 17 12 37 20 43 8 6 21 33 30 60 9 27 22 54 30 60 8
6 19 28 26 48 6 20 20 46 30 57 10 12 24 36 30 55 7 19 23 50 36 68 13 19 23
40 23 47 0 7 10 25 22 40 21 27 52 81 82 140 20 42 85 138 99 147 19 12 46 9
90 -11 24 -11 89 -24 149 -30 59 -7 129 -19 155 -28 39 -12 128 -16 488 -22
242 -4 448 -11 458 -15 28 -13 20 -33 -35 -90 -77 -78 -158 -170 -307 -351
-50 -60 -97 -117 -104 -125 -6 -8 -23 -30 -36 -50 -13 -19 -27 -37 -31 -40 -4
-3 -15 -20 -24 -37 -9 -18 -21 -33 -27 -33 -5 0 -14 -12 -19 -26 -10 -26 -22
-42 -87 -125 -18 -23 -33 -47 -33 -55 0 -8 -7 -17 -15 -20 -8 -4 -23 -25 -33
-48 -10 -22 -26 -47 -35 -55 -10 -7 -17 -19 -17 -26 0 -8 -11 -26 -23 -42 -13
-15 -29 -43 -35 -62 -7 -19 -21 -40 -32 -48 -11 -8 -20 -25 -20 -38 0 -13 -11
-36 -24 -52 -13 -15 -27 -39 -31 -53 -4 -14 -18 -41 -31 -60 -13 -19 -24 -46
-24 -60 0 -15 -11 -41 -24 -59 -40 -53 -14 -88 60 -79 21 2 30 10 35 32 5 17
20 40 34 53 14 13 25 30 25 38 0 9 11 25 25 36 13 12 27 35 30 50 4 16 16 35
27 43 11 8 27 27 36 43 40 70 59 98 85 126 15 17 27 34 27 38 0 9 55 88 84
121 8 9 22 31 31 47 8 17 19 31 23 31 4 0 16 15 27 33 10 17 40 57 67 88 26
31 48 60 48 64 0 4 12 22 28 39 15 17 41 49 57 71 29 37 62 76 115 135 42 48
64 73 115 135 106 128 405 432 577 586 47 42 84 80 80 83 -10 11 -76 6 -132
-9 -50 -14 -135 -22 -605 -55 -181 -13 -430 -13 -531 0 -43 5 -149 14 -234 19
-113 7 -169 15 -205 29 -28 11 -75 23 -105 26 -30 4 -91 18 -135 30 -73 21
-169 40 -358 69 -49 8 -88 8 -140 -1 -108 -17 -218 -50 -241 -71 -12 -10 -32
-22 -46 -26 -35 -10 -50 -24 -50 -47 0 -10 -7 -21 -15 -24 -16 -7 -14 -38 5
-74 14 -26 -8 -80 -49 -121 -69 -68 -188 -212 -196 -239 -4 -11 -11 -20 -16
-20 -5 0 -17 -16 -26 -35 -9 -19 -20 -35 -25 -35 -4 0 -17 -19 -29 -42 -12
-24 -28 -47 -35 -51 -8 -4 -21 -21 -29 -36 -8 -17 -26 -32 -42 -36 -23 -5 -32
-2 -50 22 -22 27 -25 28 -125 29 -74 1 -114 6 -143 18 -22 10 -87 21 -145 26
-58 5 -125 16 -150 25 -25 9 -81 20 -125 25 -56 6 -93 16 -125 34 -55 31 -69
32 -121 5 -23 -11 -42 -19 -44 -17 -2 2 -12 26 -22 53 -13 34 -27 54 -46 63
-24 11 -26 16 -16 34 7 12 14 61 17 109 4 75 2 93 -15 121 -17 29 -18 37 -6
66 11 26 11 159 3 755 -6 397 -15 744 -21 770 -5 26 -9 112 -9 190 0 78 -5
185 -11 237 -6 52 -11 118 -13 145 -5 95 -21 112 -146 144 -153 41 -459 48
-555 14 -28 -10 -123 -17 -310 -24 -253 -9 -271 -11 -285 -30 -14 -18 -33 -21
-150 -28 -74 -5 -141 -6 -147 -4 -27 11 0 21 69 27 106 10 199 26 233 41 17 8
86 19 153 24 119 11 261 37 371 68 47 13 64 14 124 2 45 -8 161 -13 336 -13
232 -1 271 1 303 16 20 10 39 27 43 37 3 11 16 23 28 27 12 4 28 15 34 24 7
10 25 21 40 25 25 6 26 7 9 17 -13 7 -197 9 -570 7 -303 -2 -569 -5 -591 -7z
m-609 -313 c3 -6 2 -14 -2 -19 -14 -13 -204 -24 -204 -11 0 5 15 12 33 15 51
7 151 23 159 25 4 0 10 -4 14 -10z m-229 -75 c-11 -11 -131 -21 -152 -13 -11
4 -18 8 -15 9 89 23 188 25 167 4z m-179 -59 c-2 -2 -31 -7 -66 -11 -74 -8
-88 11 -14 21 26 3 54 7 62 8 14 3 27 -10 18 -18z m-153 -45 c6 -10 -10 -15
-82 -24 -26 -4 -43 -2 -43 4 0 9 17 15 70 23 45 7 49 7 55 -3z m-145 -59 c0
-10 -48 -21 -91 -21 -37 0 -38 17 -1 23 51 8 92 7 92 -2z m-560 -58 c12 -11 9
-13 -13 -13 -23 0 -27 4 -27 28 1 23 3 25 13 12 7 -8 19 -21 27 -27z m418 5
c-5 -15 -119 -30 -132 -18 -10 10 18 18 79 23 22 2 44 4 48 5 5 1 7 -4 5 -10z
m-189 -57 c19 -11 -106 -22 -162 -15 -26 4 -47 12 -47 18 0 12 185 9 209 -3z
m596 -1722 c11 -1 -5 -5 -35 -9 -71 -10 -215 -12 -206 -3 9 9 143 22 186 17
19 -2 44 -4 55 -5z m365 -10 c19 -10 -113 -12 -230 -2 -64 6 -76 9 -50 13 49
8 262 -1 280 -11z m-644 -54 c-11 -8 -29 -15 -41 -15 -12 0 -26 -5 -33 -12 -9
-9 -12 -7 -12 9 0 22 17 28 80 31 24 1 24 1 6 -13z m841 9 c29 -4 50 -11 47
-16 -7 -12 -175 0 -188 13 -12 11 64 12 141 3z m373 -60 c42 -5 50 -8 35 -15
-20 -8 -220 -3 -285 8 -104 17 105 22 250 7z m-1310 1 c0 -2 -9 -9 -20 -15
-22 -12 -44 -5 -35 11 6 9 55 13 55 4z m2298 -12 c-21 -2 -57 -2 -80 0 -24 2
-7 4 37 4 44 0 63 -2 43 -4z m-2378 -38 c0 -9 -11 -20 -24 -25 -13 -5 -27 -18
-31 -29 -3 -12 -11 -21 -16 -21 -12 0 -22 -11 -169 -180 -14 -15 -35 -43 -48
-62 -12 -18 -34 -49 -47 -68 -13 -19 -32 -48 -41 -65 -28 -50 -84 -114 -113
-127 -17 -9 -41 -11 -71 -6 -25 3 -73 7 -107 7 -125 2 -93 16 46 21 l144 5 13
44 c7 23 22 50 33 58 12 8 21 23 21 34 0 12 10 23 25 29 14 5 25 16 25 24 0 8
12 28 26 43 14 15 32 42 39 60 8 18 21 33 29 33 9 0 19 12 22 26 4 14 17 30
30 34 13 5 24 16 24 25 0 9 11 20 25 25 14 5 30 21 35 35 6 15 17 25 30 25 13
0 22 9 26 25 4 15 13 25 24 25 11 0 22 5 25 10 9 15 25 12 25 -5z m1995 -5 c4
-7 -52 -10 -159 -10 -104 0 -166 4 -166 10 0 6 60 10 159 10 96 0 162 -4 166
-10z m395 -394 c0 -3 -4 -8 -10 -11 -5 -3 -10 -1 -10 4 0 6 5 11 10 11 6 0 10
-2 10 -4z m-55 -56 c-3 -5 -10 -10 -16 -10 -5 0 -9 5 -9 10 0 6 7 10 16 10 8
0 12 -4 9 -10z m-3219 -50 c30 0 54 -4 54 -10 0 -12 -46 -13 -153 -4 -43 4
-77 11 -77 17 0 6 23 7 61 3 34 -3 86 -6 115 -6z m3163 -16 c-6 -7 -15 -11
-21 -8 -5 3 -4 12 3 20 6 7 15 11 21 8 5 -3 4 -12 -3 -20z m-60 -68 c-11 -19
-27 -37 -35 -40 -8 -3 -19 -17 -24 -31 -6 -15 -17 -25 -30 -25 -15 0 -20 -7
-20 -24 0 -26 -14 -41 -29 -31 -13 8 20 64 41 71 10 3 21 16 24 30 4 15 13 24
25 24 11 0 22 7 24 15 3 8 7 22 10 30 2 8 11 15 19 15 13 0 12 -6 -5 -34z
m-169 -191 c0 -8 -7 -15 -16 -15 -14 0 -14 3 -4 15 7 8 14 15 16 15 2 0 4 -7
4 -15z m-50 -59 c0 -8 -4 -18 -10 -21 -5 -3 -10 3 -10 14 0 12 5 21 10 21 6 0
10 -6 10 -14z m-50 -56 c0 -21 -24 -60 -37 -60 -8 0 -19 -13 -24 -30 -6 -16
-17 -30 -24 -30 -22 0 8 62 34 72 11 4 21 16 21 26 0 10 3 22 7 25 9 10 23 8
23 -3z m-129 -183 c-8 -8 -11 -5 -11 9 0 27 14 41 18 19 2 -9 -1 -22 -7 -28z
m-38 -34 c9 -17 -24 -73 -43 -73 -15 0 -20 -7 -20 -24 0 -23 -16 -44 -26 -34
-9 10 19 68 36 73 10 3 20 19 24 35 5 28 20 39 29 23z m-120 -196 c-3 -18 -15
-32 -29 -37 -16 -7 -24 -17 -24 -34 0 -23 -16 -44 -26 -34 -12 13 11 70 31 78
14 5 25 20 29 41 4 20 10 29 15 23 5 -5 7 -22 4 -37z m2443 -43 c-5 -78 -16
-98 -16 -28 0 47 8 94 16 94 2 0 2 -30 0 -66z m-2551 -116 c-10 -44 -13 -48
-36 -48 -14 0 -19 -7 -19 -27 0 -34 -15 -60 -24 -45 -11 18 4 58 30 81 13 11
24 29 24 39 0 20 8 32 22 32 6 0 6 -14 3 -32z m2501 -102 c-8 -98 -26 -126
-26 -40 0 79 10 135 23 127 6 -4 7 -36 3 -87z m-2603 -42 c3 -3 2 -16 -3 -27
-5 -12 -11 -31 -15 -41 -4 -14 -9 -16 -16 -9 -8 8 -8 21 1 47 11 35 20 43 33
30z m2553 -173 c-10 -114 -17 -151 -28 -151 -7 0 -8 38 -3 113 8 119 10 131
27 121 6 -4 8 -34 4 -83z m-2616 57 c0 -41 -12 -68 -30 -68 -16 0 -16 3 -2 45
15 48 32 60 32 23z m-64 -153 c-3 -12 -14 -25 -25 -28 -13 -3 -20 -17 -25 -51
-6 -37 -12 -49 -32 -56 -17 -7 -24 -17 -24 -37 0 -45 -11 -71 -30 -76 -14 -4
-21 -18 -26 -57 -4 -34 -12 -54 -23 -58 -23 -8 -31 -23 -31 -62 0 -40 -8 -54
-32 -63 -11 -4 -19 -23 -23 -62 -5 -39 -14 -63 -30 -78 -15 -14 -25 -39 -29
-72 -3 -27 -10 -51 -14 -53 -25 -9 -32 -25 -39 -87 -7 -62 -11 -70 -30 -73
-19 -3 -23 -10 -23 -41 0 -21 -3 -59 -6 -85 -5 -37 -11 -46 -26 -46 -14 0 -18
5 -13 19 3 11 10 45 15 76 5 32 16 65 24 74 9 9 20 41 27 71 6 30 22 77 35
104 13 28 24 62 24 77 0 14 8 37 18 50 10 13 25 46 32 72 7 26 21 58 30 70 10
13 23 41 29 64 6 22 18 46 26 53 7 6 22 35 31 63 9 29 25 57 34 64 10 7 20 29
23 49 3 20 17 46 32 59 14 13 25 35 25 49 0 13 11 38 25 54 14 17 25 32 25 35
0 3 5 18 12 34 l12 28 4 -29 c2 -15 1 -39 -2 -51z m2634 -77 c0 -32 -21 -236
-26 -258 -12 -47 -23 9 -18 90 9 146 15 180 30 180 8 0 14 -6 14 -12z m-58
-310 c3 -7 1 -58 -4 -113 -5 -55 -11 -128 -14 -162 -3 -35 -10 -63 -16 -63
-11 0 -4 323 8 341 8 13 21 11 26 -3z m-52 -370 c-1 -56 -20 -379 -27 -433
l-7 -60 -8 40 c-7 40 -2 321 8 423 4 36 10 52 20 52 8 0 14 -10 14 -22z
m-3020 -410 c0 -76 -13 -115 -29 -90 -4 7 -4 37 1 65 20 121 28 128 28 25z
m2963 -119 c3 -12 1 -165 -5 -341 -9 -237 -8 -411 0 -666 6 -190 9 -348 7
-350 -2 -3 -11 -2 -20 1 -13 6 -15 53 -16 374 -2 492 1 964 7 986 7 23 20 22
27 -4z m-3018 -101 c-4 -51 -9 -95 -10 -97 -2 -1 -9 0 -15 4 -7 4 -9 24 -5 53
3 26 8 66 11 90 3 23 10 42 16 42 7 0 8 -30 3 -92z m-60 -306 c-4 -32 -10 -50
-17 -46 -11 7 -2 190 11 209 9 15 14 -101 6 -163z m-52 -247 c-3 -66 -9 -124
-14 -129 -10 -11 -12 179 -2 237 12 76 22 13 16 -108z m-55 -539 c-3 -282 -2
-296 16 -309 19 -14 19 -15 -1 -25 -44 -24 -47 -4 -39 316 7 279 9 312 22 312
3 0 4 -133 2 -294z m3220 -298 c-2 -32 -6 -59 -9 -62 -2 -2 -24 -7 -49 -10
-38 -6 -42 -5 -29 6 9 7 19 23 23 34 3 12 15 29 26 39 15 13 20 32 21 69 l1
51 10 -35 c5 -19 8 -61 6 -92z"/>
<path d="M12028 11573 c-16 -4 -15 -9 8 -54 15 -27 31 -52 36 -55 5 -3 9 -25
8 -48 -1 -22 -1 -47 -1 -53 1 -14 31 -18 31 -5 0 5 11 15 25 22 13 7 23 16 21
19 -2 3 20 4 50 3 42 -3 57 -8 65 -24 8 -14 7 -23 -2 -35 -9 -10 -12 -47 -10
-122 2 -106 2 -107 -29 -146 -29 -37 -102 -122 -160 -186 -100 -110 -136 -153
-144 -167 -5 -9 -22 -33 -38 -52 -16 -19 -39 -47 -51 -62 -12 -16 -37 -45 -55
-65 -55 -62 -58 -67 -78 -98 -10 -16 -29 -40 -41 -52 -13 -12 -23 -29 -23 -37
0 -8 -9 -17 -19 -21 -11 -3 -23 -14 -26 -24 -3 -10 -19 -33 -35 -51 -17 -19
-30 -39 -30 -45 0 -6 -11 -22 -25 -35 -14 -13 -25 -28 -25 -34 0 -6 -12 -22
-26 -36 -39 -39 -84 -101 -90 -126 -3 -13 -15 -26 -25 -29 -10 -4 -22 -17 -25
-31 -4 -13 -14 -30 -24 -37 -9 -6 -25 -28 -35 -47 -10 -19 -26 -41 -36 -48
-11 -7 -19 -22 -19 -32 0 -11 -11 -27 -24 -36 -14 -8 -30 -30 -36 -49 -6 -18
-19 -40 -29 -50 -11 -9 -22 -27 -25 -40 -3 -13 -15 -26 -26 -30 -12 -4 -24
-21 -30 -45 -6 -22 -19 -44 -30 -50 -10 -5 -21 -23 -25 -39 -3 -17 -14 -31
-25 -34 -13 -3 -23 -20 -30 -49 -8 -29 -19 -47 -33 -53 -12 -6 -23 -20 -25
-33 -2 -12 -12 -26 -21 -32 -10 -5 -24 -30 -30 -55 -9 -37 -15 -45 -35 -45
-21 0 -24 -6 -30 -49 -5 -41 -10 -50 -28 -53 -14 -2 -25 -13 -29 -28 l-6 -25
-10 25 c-11 26 -7 57 8 66 20 12 9 31 -15 27 -17 -4 -26 -14 -30 -33 -3 -20
-12 -29 -28 -32 -19 -2 -24 -11 -29 -46 -5 -42 -20 -62 -46 -62 -8 0 -13 -15
-13 -39 0 -33 -5 -43 -30 -61 -22 -16 -30 -29 -30 -51 0 -19 -9 -38 -24 -52
-13 -13 -26 -40 -30 -64 -5 -28 -15 -47 -32 -58 -14 -9 -24 -25 -24 -40 0 -36
-18 -75 -35 -75 -9 0 -15 -9 -15 -22 0 -37 -19 -94 -39 -117 -10 -11 -21 -43
-25 -71 -4 -32 -13 -54 -26 -63 -13 -9 -20 -31 -26 -77 -4 -45 -13 -72 -28
-88 -17 -19 -22 -41 -27 -114 -4 -77 -8 -93 -27 -108 -19 -16 -22 -28 -22 -99
l0 -81 30 0 c25 0 30 4 30 25 0 20 5 25 25 25 24 0 25 3 26 60 2 82 1 79 27
99 19 14 25 31 32 88 5 51 14 78 28 94 12 12 24 42 27 68 10 69 14 79 36 86
14 5 19 15 19 41 0 39 22 97 45 120 8 9 15 33 15 54 0 31 5 43 25 56 17 11 25
25 25 44 0 41 17 80 34 80 11 0 17 15 22 51 4 30 16 62 29 77 19 24 42 93 37
115 -1 4 4 7 12 7 7 0 22 26 33 60 11 33 16 60 11 60 -4 0 -8 5 -8 10 0 6 11
10 24 10 19 0 25 -6 28 -27 3 -30 -1 -29 153 -53 39 -7 99 -20 134 -31 85 -26
350 -41 741 -43 168 -1 310 -5 316 -9 20 -12 3 -52 -43 -103 -25 -27 -74 -80
-108 -119 -34 -38 -76 -86 -94 -105 -19 -19 -59 -69 -90 -110 -30 -41 -60 -79
-66 -85 -6 -5 -31 -37 -56 -70 -24 -33 -47 -64 -51 -70 -5 -5 -26 -35 -47 -65
-38 -53 -53 -73 -106 -150 -13 -19 -33 -52 -45 -72 -11 -21 -24 -38 -29 -38
-5 0 -14 -14 -20 -31 -6 -17 -22 -44 -36 -61 -14 -16 -25 -34 -25 -40 0 -5
-11 -23 -25 -40 -14 -16 -25 -36 -25 -43 0 -7 -11 -26 -24 -42 -13 -15 -27
-39 -31 -53 -4 -14 -18 -39 -31 -56 -13 -17 -24 -37 -24 -45 0 -8 -14 -34 -30
-58 -17 -24 -30 -49 -30 -56 0 -7 -8 -23 -19 -36 -10 -13 -23 -41 -30 -61 -7
-20 -19 -42 -26 -48 -8 -7 -20 -31 -27 -54 -6 -22 -20 -51 -29 -64 -10 -13
-21 -37 -24 -55 -4 -18 -17 -48 -30 -67 -12 -19 -26 -51 -29 -71 -4 -21 -15
-48 -26 -62 -11 -13 -24 -43 -29 -66 -5 -23 -16 -50 -25 -60 -8 -9 -20 -40
-26 -68 -6 -28 -22 -66 -36 -84 -13 -18 -24 -45 -24 -59 0 -15 -11 -47 -24
-72 -13 -24 -29 -69 -35 -98 -6 -30 -18 -61 -26 -70 -7 -8 -20 -47 -29 -87 -8
-39 -22 -83 -31 -97 -9 -13 -21 -54 -26 -91 -5 -36 -17 -83 -28 -103 -10 -20
-23 -72 -30 -115 -6 -43 -18 -94 -27 -115 -8 -20 -21 -84 -29 -142 -8 -58 -21
-125 -30 -150 -8 -24 -20 -100 -26 -168 -5 -68 -16 -155 -24 -193 -34 -160
-48 -628 -21 -692 7 -18 35 -53 62 -78 l50 -46 1689 -6 c958 -4 1706 -3 1727
2 86 20 137 115 124 229 -7 56 -19 295 -32 646 -12 294 21 1057 50 1166 8 30
19 121 25 201 5 81 17 165 26 190 8 24 20 96 26 159 6 63 19 141 30 172 10 31
24 101 30 154 6 54 17 111 26 127 8 16 21 75 29 130 8 55 21 111 29 124 8 12
20 57 26 100 6 42 19 93 29 112 10 20 21 61 25 91 4 30 17 80 30 110 12 30 26
72 29 93 4 21 18 59 32 84 13 25 24 55 24 67 0 12 10 37 22 56 11 19 27 57 34
84 7 26 19 55 27 65 9 9 20 35 26 57 6 23 18 47 26 54 9 7 20 32 26 56 6 24
22 58 35 75 13 18 24 41 24 50 0 10 11 31 25 47 14 17 25 36 25 45 0 8 10 29
23 48 12 19 29 50 36 69 8 19 22 44 31 55 9 11 24 36 34 55 9 19 29 56 44 81
15 26 39 70 54 97 15 28 32 53 38 57 5 3 18 25 29 49 10 24 24 47 30 50 6 4
18 23 26 42 8 19 18 34 24 34 5 0 14 15 21 34 6 18 22 44 35 56 14 13 25 29
25 36 0 7 11 25 25 40 14 15 25 33 25 41 0 7 14 27 30 45 17 17 30 36 30 43 0
6 11 22 25 35 14 13 25 29 25 36 0 7 14 29 30 47 17 19 30 38 30 43 0 4 10 18
22 31 12 13 31 38 42 57 52 83 69 106 77 106 5 0 15 16 23 35 8 19 20 35 25
35 6 0 19 17 30 38 10 20 28 46 40 56 12 11 21 25 21 32 0 8 11 21 25 30 14 9
25 21 25 26 0 6 12 25 28 44 15 18 41 52 57 74 17 23 41 55 55 71 14 16 39 47
55 69 17 22 45 59 63 83 18 23 43 55 55 71 12 16 34 41 50 56 15 16 27 33 27
39 0 6 11 18 25 27 14 9 25 21 25 26 0 6 14 26 30 45 29 33 30 37 30 136 l0
102 -53 56 c-62 66 -301 269 -316 269 -6 0 -17 11 -26 23 -8 13 -34 30 -58 37
-23 8 -48 18 -54 23 -10 7 -13 3 -13 -14 0 -13 13 -34 33 -51 l32 -28 -27 -24
c-16 -14 -28 -28 -28 -31 0 -18 110 -144 233 -266 53 -53 97 -103 97 -111 0
-8 -9 -23 -20 -33 -11 -10 -20 -23 -20 -30 0 -6 -11 -18 -25 -25 -14 -7 -25
-19 -25 -26 0 -8 -11 -21 -24 -29 -13 -9 -26 -25 -29 -36 -3 -11 -14 -23 -25
-26 -11 -3 -23 -15 -26 -27 -3 -13 -21 -40 -41 -62 -19 -21 -44 -50 -55 -64
-11 -14 -33 -40 -49 -59 -17 -18 -33 -42 -36 -52 -4 -11 -12 -19 -18 -19 -7 0
-21 -18 -31 -41 -11 -22 -28 -45 -38 -50 -10 -5 -18 -16 -18 -24 0 -8 -11 -22
-24 -30 -14 -9 -29 -30 -35 -46 -9 -26 -41 -42 -41 -20 0 22 31 77 49 89 12 7
21 19 21 27 0 9 11 20 24 27 14 6 26 20 28 32 2 11 13 25 26 31 12 5 22 15 22
23 0 19 22 54 48 75 12 10 22 25 22 32 0 8 9 19 20 25 12 6 25 22 30 36 5 13
16 24 25 24 8 0 21 16 29 35 8 19 20 35 25 35 6 0 20 18 31 40 11 21 29 44 40
50 11 6 20 20 20 31 0 12 10 23 25 29 19 7 25 17 25 39 0 54 -12 91 -29 91
-10 0 -36 16 -58 35 -23 19 -45 35 -50 35 -5 0 -20 11 -33 25 -13 14 -28 25
-33 25 -6 0 -17 7 -26 15 -38 37 -115 78 -155 82 l-44 5 -7 -41 c-4 -22 -16
-52 -27 -67 l-21 -26 -18 23 c-10 13 -19 36 -19 51 0 15 -4 38 -10 53 -8 22
-13 24 -29 15 -11 -5 -28 -10 -38 -10 -10 0 -37 -9 -58 -20 -22 -11 -58 -25
-80 -31 -21 -6 -50 -19 -63 -30 -14 -10 -39 -19 -58 -19 -42 0 -64 -9 -64 -25
0 -7 -12 -16 -27 -19 -77 -14 -111 -17 -117 -7 -7 11 9 17 75 26 33 4 48 11
52 24 3 11 21 22 49 29 24 6 53 21 63 32 10 11 24 20 30 20 21 0 125 93 125
112 0 9 -9 23 -20 31 -19 13 -19 15 -3 29 10 9 28 21 41 27 27 14 28 32 4 54
-23 21 -56 22 -71 3 -7 -8 -34 -20 -61 -26 -27 -6 -51 -17 -53 -24 -3 -7 -24
-18 -46 -25 -23 -7 -63 -23 -88 -37 -25 -13 -55 -24 -66 -24 -11 0 -34 -9 -51
-19 -17 -11 -56 -24 -87 -30 -31 -5 -84 -19 -117 -30 -134 -45 -490 -43 -624
4 -39 14 -81 25 -92 25 -12 1 -46 10 -76 21 -30 11 -80 26 -110 33 -30 7 -70
20 -88 30 -18 9 -58 21 -90 27 -31 6 -67 17 -80 25 -13 9 -57 22 -98 29 -41 8
-87 21 -103 29 -16 9 -59 20 -97 26 -38 6 -96 19 -129 30 -33 11 -107 24 -165
30 -58 6 -127 17 -154 25 -39 12 -108 15 -325 14 -152 -1 -284 -3 -293 -6z
m542 -208 c132 -7 172 -14 165 -26 -6 -9 -245 -4 -355 8 l-55 6 30 13 c17 8
48 12 70 9 22 -2 87 -7 145 -10z m420 -77 c10 -6 -25 -8 -98 -5 -111 5 -138
11 -115 25 16 10 193 -7 213 -20z m168 -44 c23 -3 42 -10 42 -16 0 -6 -30 -7
-87 -3 -92 8 -106 11 -98 24 4 8 48 6 143 -5z m205 -61 c20 -12 2 -21 -35 -17
-85 10 -108 15 -102 25 5 9 118 3 137 -8z m175 -58 c13 -13 -12 -16 -72 -10
-36 4 -66 12 -66 18 0 10 127 3 138 -8z m161 -51 c14 -3 20 -9 15 -14 -12 -12
-136 2 -141 16 -4 11 70 10 126 -2z m226 -66 c7 -7 -18 -9 -80 -4 -49 4 -94
11 -100 17 -7 8 15 9 80 4 50 -4 95 -11 100 -17z m825 13 c0 -10 -73 -21 -141
-21 -63 0 -64 18 -1 23 95 7 142 7 142 -2z m-240 -51 c13 0 13 -1 0 -10 -18
-11 -482 -13 -520 -2 -23 6 441 21 485 15 11 -1 27 -3 35 -3z m814 -769 c8
-12 -19 -63 -44 -86 -11 -10 -20 -24 -20 -31 0 -7 -9 -18 -20 -24 -11 -6 -27
-26 -35 -45 -14 -34 -28 -44 -39 -26 -9 14 22 79 43 90 10 6 22 22 25 36 4 14
13 25 22 25 8 0 22 16 30 35 14 34 28 44 38 26z m-156 -228 c-2 -5 -10 -21
-18 -38 -8 -16 -20 -34 -27 -38 -7 -4 -20 -21 -28 -37 -17 -33 -53 -43 -40
-12 4 9 10 27 13 40 2 13 15 28 28 32 13 6 24 18 24 28 0 10 3 22 7 25 9 10
46 9 41 0z m-123 -163 c7 -12 -18 -61 -40 -80 -10 -8 -21 -25 -26 -38 -5 -13
-18 -26 -29 -29 -11 -3 -20 -14 -20 -24 0 -24 -21 -69 -32 -69 -5 0 -16 -16
-24 -35 -14 -34 -53 -53 -40 -19 3 9 9 26 12 38 3 12 15 26 26 31 12 6 25 22
29 38 4 15 19 41 33 58 14 17 26 37 26 45 0 8 11 19 24 23 15 6 25 20 29 40 6
31 20 40 32 21z m-225 -334 c0 -23 -22 -76 -31 -76 -6 0 -16 -15 -24 -34 -27
-63 -52 -56 -33 8 8 24 21 41 35 47 15 5 23 17 23 32 0 13 3 27 7 30 11 11 23
8 23 -7z m-114 -198 c-3 -18 -17 -42 -31 -53 -14 -12 -25 -28 -25 -37 0 -8 -9
-27 -20 -41 -11 -14 -27 -42 -35 -61 -21 -49 -39 -47 -30 1 9 48 12 53 34 53
14 0 20 10 24 41 3 25 15 49 31 64 14 13 26 33 26 45 0 12 7 20 16 20 13 0 15
-7 10 -32z m-1846 -148 c0 -5 -11 -12 -25 -16 -14 -3 -30 -15 -35 -25 -6 -10
-26 -21 -46 -25 -24 -4 -39 -14 -46 -30 -6 -13 -20 -24 -30 -24 -18 0 -18 1 2
31 21 29 21 31 5 50 -14 14 -31 19 -72 19 -63 0 -71 17 -10 23 94 8 257 7 257
-3z m-390 -61 c-34 -10 -355 -11 -346 -2 8 9 332 21 356 13 10 -3 7 -6 -10
-11z m2074 -38 c6 -9 -12 -70 -24 -85 -14 -15 -30 3 -20 22 5 9 11 29 15 45 5
27 19 35 29 18z m-2727 -17 c-3 -3 -12 -4 -19 -1 -8 3 -5 6 6 6 11 1 17 -2 13
-5z m820 -49 c-4 -8 -16 -15 -28 -15 -12 0 -23 -8 -26 -20 -5 -20 -57 -53 -67
-43 -10 10 5 23 25 23 11 0 23 10 29 24 5 13 22 31 37 38 32 16 38 15 30 -7z
m1853 -39 c0 -27 -23 -77 -40 -86 -10 -5 -20 -26 -23 -48 -4 -23 -17 -47 -32
-60 -14 -12 -25 -33 -25 -46 0 -14 -11 -37 -24 -53 -13 -15 -27 -43 -31 -61
-4 -18 -17 -44 -30 -58 -13 -14 -26 -44 -30 -69 -4 -27 -11 -45 -19 -45 -10 0
-11 10 -5 43 4 23 8 48 9 55 0 7 11 17 25 22 20 8 25 16 25 45 0 42 15 75 34
75 9 0 17 17 21 49 5 38 12 51 31 60 15 6 24 19 24 33 0 40 11 66 30 71 11 3
21 18 25 38 4 19 9 37 12 42 7 12 23 8 23 -7z m-2000 -81 c-7 -8 -16 -15 -21
-15 -5 0 -9 7 -9 15 0 9 9 15 21 15 18 0 19 -2 9 -15z m-55 -55 c-3 -5 -13
-10 -21 -10 -8 0 -14 5 -14 10 0 6 9 10 21 10 11 0 17 -4 14 -10z m-65 -48 c0
-13 -12 -22 -22 -16 -10 6 -1 24 13 24 5 0 9 -4 9 -8z m-50 -56 c0 -2 -7 -9
-15 -16 -12 -10 -15 -10 -15 4 0 9 7 16 15 16 8 0 15 -2 15 -4z m-60 -54 c0
-13 -12 -22 -22 -16 -10 6 -1 24 13 24 5 0 9 -4 9 -8z m-56 -67 c-4 -8 -10
-15 -15 -15 -5 0 -9 7 -9 15 0 8 7 15 15 15 9 0 12 -6 9 -15z m-50 -44 c7 -10
-22 -37 -30 -28 -9 8 3 37 15 37 5 0 12 -4 15 -9z m-65 -86 c-12 -19 -27 -35
-34 -35 -7 0 -18 -13 -24 -30 -6 -19 -17 -30 -29 -30 -14 0 -21 -9 -25 -30 -5
-20 -11 -28 -21 -24 -12 5 -12 9 1 34 7 16 22 32 32 35 11 3 22 16 25 29 3 14
16 26 31 30 15 4 25 13 25 25 0 21 8 31 26 31 10 0 7 -10 -7 -35z m2116 -94
c-10 -57 -16 -72 -26 -65 -9 5 -5 50 8 97 9 33 25 5 18 -32z m-2285 -91 c0
-11 -7 -20 -15 -20 -13 0 -14 4 -5 20 6 11 13 20 15 20 3 0 5 -9 5 -20z m2235
1 c7 -12 -14 -102 -26 -115 -10 -12 -12 47 -3 93 6 31 18 39 29 22z m-2285
-65 c0 -17 -14 -29 -23 -20 -8 8 3 34 14 34 5 0 9 -6 9 -14z m-50 -56 c0 -21
-24 -60 -37 -60 -8 0 -20 -13 -26 -30 -6 -16 -17 -30 -24 -30 -20 0 11 62 36
72 11 4 21 16 21 26 0 10 3 22 7 25 9 10 23 8 23 -3z m2276 -57 c-9 -75 -15
-95 -27 -87 -6 3 -7 26 -4 52 10 75 15 92 26 92 8 0 9 -18 5 -57z m-2405 -126
c-8 -8 -11 -5 -11 9 0 27 14 41 18 19 2 -9 -1 -22 -7 -28z m2355 1 c-3 -13 -8
-49 -11 -80 -8 -72 -25 -86 -25 -21 0 74 11 123 26 123 10 0 13 -8 10 -22z
m-2393 -34 c3 -3 2 -14 -3 -23 -5 -9 -11 -24 -14 -33 -3 -10 -15 -18 -26 -18
-15 0 -20 -7 -20 -24 0 -24 -16 -43 -27 -32 -10 10 19 65 37 71 10 3 20 19 24
35 5 29 16 37 29 24z m2332 -213 c-9 -93 -15 -121 -27 -121 -7 0 -8 27 -4 83
8 96 14 120 27 111 6 -4 8 -32 4 -73z m-2452 16 c-3 -18 -15 -32 -29 -37 -16
-7 -24 -17 -24 -34 0 -23 -16 -44 -26 -34 -12 13 11 70 31 78 14 5 25 20 29
41 4 20 10 29 15 23 5 -5 7 -22 4 -37z m-108 -159 c-10 -43 -13 -48 -34 -48
-14 0 -20 -11 -25 -42 -5 -28 -10 -38 -17 -31 -15 15 -1 58 27 84 13 12 24 30
24 39 0 19 9 30 22 30 6 0 6 -14 3 -32z m2501 -90 c-9 -120 -25 -150 -26 -47
0 88 8 139 23 139 6 0 7 -32 3 -92z m-2612 -85 c-8 -45 -12 -53 -26 -53 -10 0
-3 63 8 82 14 22 24 4 18 -29z m2562 -142 c-9 -114 -16 -151 -28 -151 -7 0 -8
40 -3 118 8 124 10 136 27 126 7 -4 8 -37 4 -93z m-2616 65 c0 -43 -14 -76
-31 -76 -20 0 -26 15 -10 24 4 3 11 19 14 36 6 30 27 43 27 16z m-64 -162 c-4
-15 -14 -24 -25 -24 -15 0 -21 -10 -26 -51 -6 -40 -12 -52 -30 -59 -17 -7 -24
-19 -29 -58 -5 -38 -11 -51 -26 -55 -14 -4 -21 -17 -26 -57 -5 -42 -11 -53
-30 -61 -19 -7 -24 -16 -24 -44 0 -43 -15 -75 -35 -75 -9 0 -16 -18 -21 -56
-4 -38 -14 -64 -30 -81 -13 -14 -24 -36 -24 -48 0 -51 -12 -85 -31 -85 -11 0
-19 3 -19 6 0 22 34 132 45 144 7 8 20 40 29 71 9 31 22 62 30 68 7 6 19 31
25 55 6 24 17 49 26 56 8 7 22 35 30 63 8 27 23 56 34 63 10 7 21 31 24 52 4
23 17 47 32 60 14 12 25 33 25 46 0 14 11 38 25 54 14 17 25 35 25 42 0 6 6
21 12 33 13 22 13 21 16 -7 2 -15 1 -39 -2 -52z m2629 -74 c6 -9 -11 -215 -21
-260 -12 -48 -23 10 -18 90 11 168 19 203 39 170z m-52 -325 c-1 -11 -7 -85
-12 -164 -12 -165 -31 -215 -31 -80 0 47 3 127 7 178 5 77 9 91 22 89 9 -2 15
-12 14 -23z m-58 -345 c3 -6 1 -90 -4 -188 -16 -260 -22 -322 -32 -317 -8 6
-3 399 7 473 5 41 16 53 29 32z m-2901 -78 c-9 -77 -14 -92 -30 -92 -12 0 -14
7 -10 28 3 15 8 45 12 67 8 48 12 57 24 50 5 -3 7 -27 4 -53z m-59 -174 c-7
-78 -10 -88 -27 -88 -7 0 -8 19 -3 58 9 78 15 102 27 102 7 0 8 -25 3 -72z
m-60 -245 c-3 -13 -10 -23 -17 -23 -12 0 -5 122 9 157 10 22 17 -100 8 -134z
m2965 -229 c-7 -290 -6 -749 2 -977 7 -186 7 -198 -10 -195 -16 3 -18 29 -24
308 -7 301 -1 1018 9 1053 2 10 10 16 16 14 9 -3 11 -56 7 -203z m-3016 83
c-7 -91 -12 -107 -24 -87 -14 23 5 174 21 165 5 -4 7 -37 3 -78z m-59 -295
c-4 -32 -10 -50 -17 -46 -10 7 -3 151 10 189 10 29 15 -78 7 -143z m-64 -370
c-13 -21 -15 141 -3 203 5 30 8 12 10 -73 1 -63 -2 -120 -7 -130z m-49 -437
c-4 -254 -3 -277 13 -295 17 -19 17 -20 0 -26 -33 -13 -31 -33 -27 394 1 111
6 202 10 202 5 0 7 -124 4 -275z m3227 -271 c1 -27 -5 -57 -11 -66 -13 -16
-78 -35 -78 -23 0 4 16 30 35 59 24 36 35 65 36 92 1 34 2 36 9 14 4 -14 8
-48 9 -76z"/>
<path d="M10030 7528 l0 -51 25 23 c15 14 25 35 25 52 0 23 -4 28 -25 28 -23
0 -25 -3 -25 -52z"/>
<path d="M6323 5762 c-13 -2 -23 -7 -23 -12 0 -4 -11 -11 -25 -14 -22 -6 -25
-12 -26 -54 -1 -81 -15 -144 -36 -161 -17 -13 -22 -35 -31 -133 -7 -84 -15
-126 -29 -150 -16 -26 -22 -67 -31 -194 -7 -89 -19 -183 -28 -210 -19 -60 -40
-467 -30 -568 6 -54 13 -74 32 -91 13 -12 24 -27 24 -32 0 -6 27 -24 60 -41
43 -23 74 -32 108 -32 78 0 89 7 108 62 9 27 14 51 11 54 -2 3 -27 7 -55 11
-58 6 -57 6 -100 56 l-32 38 5 122 c4 67 12 176 20 242 8 66 17 196 20 289 4
124 10 183 24 225 12 36 20 99 24 178 4 101 9 129 26 156 18 30 21 50 21 145
0 61 -3 112 -7 114 -5 2 -18 2 -30 0z"/>
<path d="M9795 4291 c-5 -17 -44 -57 -75 -76 -8 -5 -346 -10 -775 -11 -829 -3
-1487 -11 -1717 -21 -147 -6 -148 -6 -148 -29 0 -20 5 -24 30 -24 25 0 30 -4
30 -24 0 -22 4 -24 93 -29 50 -4 648 -10 1328 -13 l1237 -7 17 26 c9 15 23 27
31 27 8 0 20 16 28 35 8 19 20 35 25 35 6 0 11 20 11 45 0 42 -1 44 -35 51
-19 3 -39 12 -46 20 -16 19 -27 18 -34 -5z"/>
</g>
</svg>
