<svg width="169" height="75" viewBox="0 0 169 75" fill="none" xmlns="http://www.w3.org/2000/svg">
<path d="M144.003 20.5678L147.363 17.6739L147.56 20.5678L144.201 23.5182L144.003 20.5678ZM147.758 63.948C146.872 64.5801 145.927 65.1238 144.935 65.5714C145.711 65.7973 146.488 66.0091 147.25 66.249C154.102 68.3237 160.8 70.8757 167.295 73.8861L167.154 74.2108C160.495 71.7036 153.693 69.5919 146.784 67.8866C145.175 67.4631 143.551 67.0678 141.914 66.6866C140.332 67.2099 138.649 67.3549 137.001 67.1101C136.271 67.0177 135.569 66.7694 134.943 66.3822C134.317 65.9949 133.782 65.4777 133.373 64.8656C130.917 64.3715 128.447 63.9057 125.976 63.454C120.908 62.607 115.826 61.8729 110.73 61.3082L109.883 61.5059C108.006 61.9416 106.042 61.8139 104.237 61.1388C103.341 61.3544 102.43 61.5007 101.512 61.5765C100.572 61.627 99.6293 61.627 98.6889 61.5765C96.633 61.4218 94.6301 60.8502 92.8023 59.8966C89.7672 59.7413 86.7322 59.7554 83.6971 59.6848C80.1538 59.6848 76.6388 59.6848 73.0673 59.7836C69.4958 59.8825 66.0091 60.0942 62.4658 60.3765C55.4075 60.8706 48.3492 61.7882 41.291 62.7905C34.2327 63.7928 27.3297 65.3173 20.4549 67.0254C13.548 68.7122 6.76546 70.8725 0.155283 73.4908L0 73.1661C3.71266 71.3451 7.53825 69.7358 11.4203 68.2818C10.5592 68.3665 9.72631 68.4371 8.96402 68.4371C4.49377 68.4371 2.18807 66.8937 2.0469 63.8069C2.00869 61.7415 2.72661 59.7333 4.06557 58.1602C4.76745 57.2563 5.5316 56.4026 6.35245 55.6051C6.70537 55.2522 7.10063 54.8852 7.52413 54.5323C7.94763 54.1794 8.39935 53.77 8.93578 53.3183L10.9545 51.7796L11.5615 51.2431L12.8743 50.1703C13.2135 49.8951 13.5386 49.603 13.8484 49.295C15.26 48.0387 15.9941 46.9658 15.9941 46.0623C15.9941 45.7518 16.0788 45.5965 16.2623 45.5965C16.3416 45.5819 16.4229 45.5819 16.5023 45.5965H16.7281C16.9324 45.6626 17.104 45.8039 17.2081 45.9918C17.4374 46.228 17.6195 46.5059 17.7445 46.8105C17.8838 47.2679 17.9505 47.7442 17.9422 48.2222C17.9389 49.1019 17.738 49.9696 17.3544 50.7612C16.9708 51.5529 16.4143 52.2483 15.7259 52.7959L14.7236 53.6712C14.3148 54.012 13.8858 54.3278 13.439 54.617L7.80646 58.2449L6.49362 59.219C6.11247 59.5154 5.77368 59.7836 5.44899 60.066C4.7927 60.5621 4.25828 61.2015 3.88644 61.9353C3.5146 62.6692 3.31515 63.4783 3.30328 64.3009C3.38798 66.5455 5.16666 67.6607 8.6111 67.6607C10.699 67.6606 12.7827 67.4716 14.8365 67.096C17.3493 66.2208 19.8902 65.4444 22.4312 64.6962C23.7619 64.0937 25.0495 63.4004 26.285 62.6211C28.7598 61.1685 30.8698 59.1695 32.454 56.7768C34.031 54.4944 34.8101 51.7551 34.6703 48.9845C34.2563 46.7296 33.3395 44.5969 31.9881 42.745L29.6166 38.9617C29.0801 38.1147 28.6002 37.3524 28.2049 36.6889L27.0615 34.7973L26.525 33.9221C25.5926 32.2186 24.7858 30.4494 24.1111 28.6284C23.4277 26.7958 23.0417 24.8657 22.9677 22.9112C22.7959 20.2988 23.2057 17.6808 24.1676 15.2459C25.0426 13.0977 26.3222 11.1377 27.9367 9.47221C29.4613 7.9004 31.2478 6.6059 33.2163 5.64663C35.045 4.75127 36.9949 4.12825 39.0041 3.79736C40.7522 3.50816 42.5395 3.55607 44.2695 3.93852C45.7086 4.22152 47.0166 4.9647 47.9963 6.05601C48.4472 6.62872 48.7783 7.28629 48.9699 7.98958C49.1615 8.69288 49.2097 9.42752 49.1115 10.1498C48.7747 12.3541 47.9236 14.4481 46.627 16.2623C47.8693 15.0059 49.0409 13.7354 50.1138 12.4367C51.1286 11.2354 51.974 9.90071 52.6265 8.46994C53.2189 7.18913 53.4995 5.78624 53.4453 4.37614C53.3081 2.80469 52.7631 1.29626 51.8643 0C53.5648 0.975368 55.0148 2.33352 56.0992 3.96675C56.8046 5.1091 57.0799 6.46539 56.8756 7.79234C56.5849 9.17542 55.9487 10.4624 55.0264 11.5332C53.9278 12.8606 52.7291 14.1018 51.4408 15.2459C50.0291 16.4881 48.6175 17.7304 47.0082 18.9727C45.3989 20.2149 43.959 21.4995 42.5756 22.77C41.2611 23.9691 40.0607 25.2876 38.99 26.7085C38.0425 27.8873 37.4065 29.2853 37.1407 30.7741C37.1787 28.7992 37.7759 26.8755 38.8629 25.2263C40.0676 23.4072 41.4178 21.6888 42.9002 20.0879C43.9017 18.3984 44.5186 16.5091 44.7072 14.5542C44.8524 13.102 44.5986 11.6378 43.9731 10.3192C43.4049 9.1889 42.5161 8.25109 41.418 7.62295C40.303 6.97725 39.049 6.60928 37.7618 6.55009C36.3083 6.48756 34.8597 6.75771 33.5264 7.33995C32.1931 7.92219 31.0103 8.80115 30.0683 9.90983C28.919 11.3504 28.0695 13.0063 27.5697 14.78C26.8868 17.0666 26.6238 19.458 26.7932 21.8383C26.8779 22.8688 27.005 23.8711 27.1603 24.8593C27.3243 25.8653 27.5843 26.8532 27.9367 27.8096C28.2231 28.6609 28.5577 29.4951 28.939 30.3083C29.3483 31.1553 29.8001 32.0305 30.3506 32.9198L30.887 33.7951L35.6443 41.051C37.0808 43.1228 37.9606 45.529 38.1994 48.0387C38.3614 51.353 37.2331 54.6012 35.0514 57.1015C32.9219 59.7737 30.2206 61.9347 27.1462 63.4257C31.7105 62.2399 36.3078 61.1953 40.938 60.2918C55.0568 57.6755 69.3951 56.4275 83.7536 56.5651C85.6028 56.5651 87.4521 56.5651 89.3014 56.7062C88.8795 56.0575 88.5471 55.3547 88.3132 54.617C87.7247 52.6607 87.5281 50.6075 87.7344 48.5751C87.9663 46.3108 88.4882 44.0857 89.2873 41.9544C90.1113 39.7027 91.0973 37.5136 92.2376 35.4043C93.3238 33.3961 94.5356 31.4583 95.8656 29.6024C96.9577 28.0494 98.1607 26.5774 99.4653 25.1981C97.9241 23.5111 96.8573 21.4459 96.3738 19.2126C95.9653 17.2403 96.0575 15.1971 96.642 13.2696C97.2193 11.3219 98.2168 9.52446 99.5641 8.00409C101.021 6.36879 102.75 4.99806 104.674 3.95264C106.727 2.82899 108.949 2.04706 111.253 1.63752C113.705 1.16529 116.225 1.16529 118.678 1.63752C119.678 1.84274 120.663 2.1115 121.628 2.44217C122.682 2.83563 123.679 3.36729 124.593 4.02322C125.501 4.69272 126.277 5.52571 126.88 6.4795C127.19 6.97358 127.261 7.21357 127.077 7.18533C126.894 7.1571 126.696 7.00182 126.47 6.67714C125.832 5.63601 124.956 4.76051 123.915 4.12204C122.892 3.44726 121.753 2.96857 120.555 2.71038C118.524 2.40361 116.454 2.46097 114.443 2.87978C112.211 3.34796 110.054 4.12228 108.034 5.18078C106.007 6.19961 104.111 7.46048 102.387 8.93579C100.765 10.3005 99.4183 11.9633 98.4207 13.8342C97.5211 15.5148 97.0919 17.4072 97.1784 19.3115C97.3441 21.4232 98.2256 23.4152 99.6771 24.9581C101.919 22.5821 104.392 20.4352 107.06 18.5492C109.793 16.5988 112.705 14.9114 115.756 13.5096C118.788 12.1063 121.952 11.0046 125.2 10.2204C128.363 9.43626 131.61 9.03809 134.87 9.0346C135.218 9.01589 135.566 9.01589 135.914 9.0346C136.295 9.0346 136.733 9.14753 137.227 9.23223C138.201 9.36928 139.151 9.64005 140.05 10.0369C141.688 10.5137 143.091 11.5797 143.989 13.0296C144.274 13.6219 144.422 14.2709 144.422 14.9283C144.422 15.5857 144.274 16.2346 143.989 16.8269C143.162 18.3955 142.023 19.7788 140.643 20.8925C138.92 22.4153 137.025 23.7323 134.997 24.8169C132.625 26.0858 130.15 27.153 127.6 28.0073C124.914 28.94 122.143 29.6067 119.327 29.9977C116.52 30.376 113.678 30.4329 110.857 30.1671C108.13 29.9234 105.468 29.1968 102.994 28.0214C101.563 29.267 100.296 30.6901 99.2253 32.2563C96.251 36.4056 93.9499 40.9982 92.407 45.8647C91.6763 48.0733 91.3045 50.3849 91.3059 52.7113C91.291 54.192 91.6607 55.6512 92.3788 56.9462C95.2021 57.0874 98.0254 57.2568 100.849 57.4826C100.715 57.021 100.62 56.5487 100.566 56.071C100.363 54.2871 100.502 52.4809 100.976 50.749C101.577 48.7634 102.436 46.8651 103.531 45.1024C104.694 43.1835 106.016 41.3655 107.484 39.6675C108.935 37.9738 110.537 36.4147 112.269 35.0091C113.777 33.7722 115.461 32.7682 117.266 32.0305C118.74 31.4066 120.347 31.1639 121.939 31.3247C122.683 31.4247 123.399 31.6753 124.044 32.0611C124.688 32.4469 125.247 32.9599 125.687 33.5687C126.127 34.1776 126.438 34.8696 126.602 35.6026C126.766 36.3356 126.779 37.0943 126.64 37.8324C126.321 39.7241 125.671 41.5448 124.72 43.2108C123.584 45.2562 122.251 47.1852 120.739 48.9704C119.165 50.8822 117.447 52.6708 115.601 54.3205C113.948 55.7933 112.193 57.1472 110.349 58.372C111.846 58.5555 113.328 58.7673 114.81 58.979L115.459 58.6543C117.488 57.4881 119.382 56.101 121.106 54.5182C122.983 52.8068 124.638 50.8672 126.033 48.7445C127.494 46.5288 128.604 44.1002 129.322 41.545C130.09 38.8544 130.367 36.0475 130.141 33.2586C130.141 32.4116 130.141 31.9317 130.141 31.847C130.395 32.2934 130.599 32.7669 130.748 33.2586C131.801 35.668 132.115 38.3357 131.651 40.9239C131.179 43.4954 130.221 45.9533 128.828 48.1657C127.34 50.5107 125.518 52.6268 123.421 54.4476C121.356 56.2305 119.086 57.7612 116.659 59.0072L116.349 59.1625C119.699 59.6707 123.04 60.2636 126.371 60.9412C128.489 61.3506 130.606 61.8164 132.696 62.3529C132.704 61.8024 132.765 61.254 132.879 60.7153C133.327 58.9678 134.245 57.3763 135.533 56.1133C135.671 55.9328 135.833 55.7714 136.013 55.6334C136.011 55.6161 136.012 55.5986 136.018 55.5821C136.024 55.5657 136.033 55.5507 136.045 55.5384C136.057 55.5261 136.072 55.5168 136.089 55.5112C136.105 55.5057 136.123 55.504 136.14 55.5063C136.257 55.372 136.396 55.2576 136.55 55.1675L136.677 55.0405C137.374 54.5082 138.116 54.0359 138.893 53.6288C139.75 53.1558 140.653 52.7726 141.589 52.4854C143.667 51.7459 145.83 51.2716 148.026 51.0737C150.261 50.8616 152.511 50.8616 154.746 51.0737L157.767 45.6247C158.265 44.7401 158.816 43.8225 159.418 42.872C160.025 41.9403 160.632 40.9945 161.268 40.0487L157.442 43.6061C156.143 44.7636 154.873 45.8506 153.645 46.8529C152.417 47.8551 151.344 48.7021 150.454 49.3797L150.243 49.5068C149.356 48.4089 148.913 47.0189 149 45.6106C149.058 45.0442 149.157 44.4827 149.297 43.9307L148.464 44.6366L146.318 46.5282C145.584 47.1776 144.907 47.7705 144.201 48.3351C143.704 48.7776 143.165 49.1701 142.591 49.5068C142.153 49.476 141.727 49.3486 141.344 49.1338C140.961 48.9191 140.63 48.6222 140.375 48.2645C139.956 47.56 139.801 46.7295 139.938 45.9212C140.028 45.3173 140.169 44.7222 140.361 44.1425C139.288 45.1024 138.215 46.0341 137.185 46.9658C136.154 47.8975 134.884 48.8433 133.994 49.5209H133.853C132.999 48.4083 132.573 47.0254 132.653 45.6247C132.749 44.2462 133.124 42.9015 133.754 41.6721C134.428 40.3111 135.242 39.0242 136.182 37.8324L138.836 34.4021C139.53 33.5227 140.135 32.577 140.643 31.5788C140.856 31.2799 140.97 30.9222 140.97 30.5553C140.97 30.1884 140.856 29.8307 140.643 29.5318C141.815 30.1671 142.422 30.9435 142.493 31.7199C142.53 32.6777 142.284 33.6252 141.787 34.4444C141.143 35.5774 140.391 36.6458 139.542 37.6348C138.582 38.7641 137.651 39.9499 136.719 41.1498C135.867 42.3292 135.112 43.5755 134.46 44.8766C133.854 46.0702 133.599 47.4117 133.726 48.7445C134.714 48.0245 135.787 47.1917 136.945 46.2317C138.102 45.2718 139.274 44.2695 140.446 43.239L140.813 42.9002C140.811 42.8673 140.811 42.8343 140.813 42.8014C141.36 41.576 141.988 40.3877 142.69 39.244C143.424 38.0159 144.229 36.7595 145.076 35.5173C145.923 34.275 146.784 33.0469 147.631 31.8893L144.342 32.4257C143.58 32.5528 143.198 32.5528 143.198 32.4257C143.198 32.2987 143.382 32.0869 143.763 31.8611C144.175 31.6185 144.605 31.4062 145.048 31.2258C145.361 31.0746 145.687 30.9517 146.022 30.8588L148.704 30.4494L151.188 27.0191C151.763 26.1841 152.237 25.2837 152.6 24.337C152.739 23.9884 152.774 23.6071 152.702 23.239C152.629 22.8709 152.452 22.5315 152.191 22.2618C152.771 22.446 153.27 22.825 153.602 23.3347C153.919 23.8531 154.113 24.4376 154.167 25.0428C154.238 25.6946 154.195 26.3538 154.04 26.9909C153.894 27.5931 153.656 28.1693 153.334 28.699C153.067 29.1388 152.749 29.5461 152.388 29.913C153.193 29.8283 153.927 29.7577 154.576 29.7154C155.088 29.6724 155.603 29.6724 156.115 29.7154C156.496 29.7154 156.694 29.8565 156.722 30.0118C156.75 30.1671 156.51 30.3788 156.016 30.6471L151.245 31.3952C150.172 32.6375 148.972 34.1056 147.645 35.7573C146.359 37.3282 145.153 38.9631 144.031 40.6557C143.077 42.1158 142.322 43.6967 141.787 45.3565C141.547 45.9318 141.452 46.5572 141.512 47.1775C141.571 47.7979 141.782 48.3943 142.126 48.9139L142.323 48.7868C142.775 48.4763 143.354 48.0246 144.074 47.4458C144.794 46.867 145.485 46.2317 146.318 45.5542L148.676 43.5778L149.65 42.7732C149.794 42.3742 149.959 41.9831 150.144 41.6015C150.83 40.2697 151.643 39.0075 152.572 37.8324L155.226 34.3738C155.923 33.491 156.537 32.5459 157.061 31.5505C157.281 31.268 157.4 30.9203 157.4 30.5624C157.4 30.2044 157.281 29.8567 157.061 29.5742C157.506 29.7645 157.9 30.0564 158.211 30.4267C158.522 30.7969 158.742 31.235 158.854 31.7058C158.903 32.6559 158.656 33.5979 158.148 34.4021C157.481 35.531 156.716 36.5986 155.861 37.5924C154.887 38.7359 153.983 39.9075 153.108 41.1216C152.25 42.2968 151.494 43.5437 150.85 44.8483C150.24 46.0357 149.985 47.3737 150.116 48.7021C151.104 47.9963 152.177 47.1634 153.334 46.2176C154.492 45.2718 155.663 44.2978 156.835 43.2673C158.007 42.2368 159.39 40.8957 160.463 39.7664C161.536 38.637 162.524 37.5359 163.442 36.4207C164.359 35.3055 165.234 34.1903 166.067 33.0892L168.58 29.7577L166.265 33.9927C165.573 35.2914 164.924 36.5196 164.317 37.6912C163.71 38.8629 163.117 40.0205 162.538 41.178L160.731 44.8907L158.515 49.5209C158.331 49.8456 158.176 50.1562 158.035 50.4667C157.894 50.7773 157.753 51.1161 157.569 51.469C159.513 51.8322 161.408 52.4196 163.216 53.2194C164.707 53.8618 166.037 54.8259 167.112 56.0428C168 57.0379 168.471 58.3375 168.425 59.6707C168.233 61.3285 167.475 62.8694 166.279 64.0327C166.291 62.7809 166.026 61.5419 165.503 60.4048C164.99 59.2926 164.299 58.2721 163.456 57.3838C162.557 56.4599 161.542 55.6579 160.435 54.9981C159.239 54.2929 157.983 53.6976 156.68 53.2194C155.903 54.5605 155.085 55.9157 154.181 57.2568C153.309 58.5758 152.332 59.8221 151.259 60.9836C150.201 62.0937 149.027 63.0876 147.758 63.948ZM103.291 27.5414C104.504 28.0967 105.754 28.5684 107.032 28.9531C108.149 29.261 109.293 29.4596 110.448 29.546C111.613 29.6517 112.784 29.6517 113.949 29.546C115.135 29.433 116.433 29.2495 117.873 28.9813C119.322 28.6845 120.739 28.2544 122.108 27.6967C123.718 27.0756 125.412 26.285 127.176 25.4522C128.941 24.6193 130.705 23.617 132.456 22.5583C134.079 21.5944 135.64 20.5288 137.128 19.3679C138.343 18.4299 139.464 17.3756 140.474 16.2199C141.23 15.4627 141.695 14.4629 141.787 13.3966C141.757 12.9381 141.6 12.4971 141.333 12.123C141.066 11.7489 140.7 11.4567 140.276 11.2791C138.707 10.5594 137.006 10.1701 135.279 10.1357C132.266 9.92679 129.243 10.3648 126.414 11.4203C123.327 12.5165 120.365 13.936 117.577 15.6553C114.764 17.3772 112.101 19.3322 109.615 21.4995C107.387 23.3841 105.275 25.4017 103.291 27.5414ZM113.808 54.0806C115.649 52.5528 117.38 50.897 118.989 49.1256C120.525 47.4428 121.904 45.6237 123.111 43.6908C124.145 42.0679 124.939 40.3038 125.468 38.4535C125.927 37.0313 125.852 35.4904 125.256 34.1197C125.059 33.5904 124.715 33.1278 124.265 32.7855C123.816 32.4433 123.278 32.2353 122.715 32.1858C121.334 32.122 119.962 32.4394 118.749 33.1033C117.066 33.9415 115.489 34.9744 114.048 36.1808C112.353 37.5476 110.768 39.0438 109.305 40.6557C107.812 42.3326 106.444 44.116 105.211 45.9918C104.072 47.6837 103.125 49.4971 102.387 51.3984C101.747 52.9402 101.439 54.5998 101.484 56.2686C101.5 56.6695 101.562 57.0673 101.667 57.4544C103.785 57.6379 105.902 57.8497 108.034 58.1038L108.331 57.9485C110.271 56.8298 112.104 55.535 113.808 54.0806ZM150.384 58.1461C151.673 56.3204 152.873 54.4382 153.983 52.4995C151.608 52.0076 149.176 51.8461 146.756 52.0195C144.404 52.1848 142.097 52.753 139.938 53.6994C138.504 54.4529 137.263 55.525 136.31 56.8333C135.544 57.8794 135.058 59.104 134.898 60.3907C134.804 61.2688 134.91 62.1569 135.208 62.9881C137.825 63.6375 140.422 64.3292 143.001 65.0632C143.959 64.5563 144.858 63.9456 145.683 63.2422C147.459 61.7493 149.039 60.0369 150.384 58.1461ZM70.5828 30.8447L73.2791 30.4353L75.7636 27.005C76.3344 26.1674 76.808 25.2676 77.1753 24.3228C77.3025 23.9817 77.3315 23.6118 77.2592 23.255C77.1868 22.8982 77.0159 22.5688 76.7659 22.3042C77.3471 22.4862 77.8465 22.8657 78.1775 23.377C78.499 23.8944 78.6971 24.4789 78.7563 25.0851C78.815 25.7379 78.7673 26.3958 78.6152 27.0332C78.4753 27.6375 78.2368 28.2146 77.9093 28.7413C77.6468 29.1845 77.329 29.5924 76.9635 29.9553C77.7823 29.8706 78.5022 29.8001 79.1516 29.7577C79.6683 29.7146 80.1877 29.7146 80.7044 29.7577C81.0714 29.7577 81.2832 29.8989 81.2973 30.0542C81.3114 30.2094 81.0855 30.4212 80.5915 30.6894L75.8342 31.4376C74.7472 32.6798 73.5614 34.148 72.2345 35.7996C70.9356 37.3494 69.7244 38.9707 68.6065 40.6557C67.6428 42.1123 66.8829 43.6939 66.3478 45.3565C66.1153 45.9333 66.0246 46.5574 66.0836 47.1765C66.1426 47.7956 66.3494 48.3914 66.6866 48.9139L66.8843 48.7868C67.336 48.4763 67.9148 48.0246 68.6347 47.4458C69.3547 46.867 70.0464 46.2317 70.8934 45.5542L73.2367 43.5778L74.1967 42.7873L76.0883 40.3875C77.4999 38.5523 79.0528 36.8442 80.5632 35.2491L85.2217 30.3083C85.6346 29.4486 86.1062 28.6185 86.6333 27.8237C87.6639 26.2568 88.412 25.4239 88.8497 25.3392C89.2873 25.2545 89.5272 25.6498 89.5272 26.5533L89.1179 27.0897L86.7039 29.6448C86.4781 30.2236 86.2522 30.8588 86.0405 31.5505C85.8287 32.2422 85.5887 33.0469 85.3629 33.9362C84.9111 35.6443 84.4171 37.4371 83.8524 39.3146C83.3311 41.0873 82.6458 42.8075 81.8055 44.4531C81.0817 45.8925 80.0732 47.17 78.841 48.2081C77.6566 49.185 76.1353 49.6565 74.606 49.5209C73.1944 49.4362 72.2203 49.0974 71.8815 48.5186C71.7103 48.1794 71.6211 47.8046 71.6211 47.4246C71.6211 47.0446 71.7103 46.6698 71.8815 46.3306C72.09 45.8421 72.3354 45.3701 72.6156 44.9189L70.851 46.4717L68.7336 48.2786C68.2343 48.7179 67.6956 49.1101 67.1243 49.4503C66.6841 49.4196 66.2561 49.2924 65.8707 49.0777C65.4852 48.863 65.1517 48.5661 64.8938 48.2081C64.4866 47.4992 64.3369 46.6713 64.4703 45.8647C64.6239 44.7967 64.9281 43.7558 65.3738 42.7732C65.9215 41.5543 66.5536 40.375 67.2654 39.244C67.9995 38.0159 68.79 36.7595 69.6511 35.5173C70.5122 34.275 71.3451 33.0469 72.1921 31.8893L68.9029 32.4257C68.1406 32.5528 67.7595 32.5528 67.7595 32.4257C67.7595 32.2987 67.9571 32.0869 68.3383 31.8611C68.7472 31.6213 69.1716 31.4091 69.6088 31.2258C69.9223 31.0721 70.2481 30.9446 70.5828 30.8447ZM72.6015 46.7541C72.3909 47.1481 72.3403 47.6082 72.4603 48.0387C72.6862 48.7021 73.0532 48.9704 73.5755 48.8433C74.2217 48.6145 74.7996 48.226 75.2554 47.714C75.9498 47.008 76.5871 46.2481 77.1611 45.4412C77.8387 44.5236 78.4457 43.6202 78.9822 42.745C79.5186 41.8697 79.9844 41.1074 80.3938 40.4298C80.8032 39.7522 80.9867 39.3852 81.0291 39.2864C81.5655 38.1712 82.0878 37.0419 82.6101 35.8984C83.1324 34.755 83.5983 33.5974 84.0359 32.581C82.7795 33.9927 81.509 35.4043 80.2385 36.7172C78.9681 38.03 77.7399 39.5405 76.5682 40.9521C76.0318 41.5874 75.4954 42.2509 74.959 42.9708C74.4225 43.6908 73.9426 44.3825 73.5473 45.0177C73.1827 45.5682 72.8662 46.1491 72.6015 46.7541ZM58.1461 67.096L56.4521 63.6798L54.7582 67.096L50.9749 67.6466L53.7135 70.3005L53.0642 74.0696L56.4521 72.2909L59.826 74.0696L59.1908 70.3005L61.9294 67.6325L58.1461 67.096ZM53.2194 22.9112C54.8376 20.6995 56.5766 18.5788 58.4285 16.5587C60.0823 14.7438 61.8556 13.0413 63.7363 11.4626C65.2235 10.1713 66.8992 9.11446 68.7053 8.32877L69.1712 8.13114L69.5805 8.00409C69.7631 7.89464 69.9754 7.84526 70.1876 7.86293C70.2708 7.85215 70.3553 7.85916 70.4356 7.8835C70.5159 7.90783 70.5902 7.94894 70.6534 8.00409C70.7067 8.0419 70.7517 8.0902 70.7857 8.14604C70.8197 8.20187 70.8419 8.26405 70.851 8.32877C70.8773 8.67266 70.8341 9.01833 70.724 9.34517C70.5416 9.82644 70.2896 10.2783 69.9758 10.6862C68.9453 12.0979 67.9148 13.4249 66.856 14.7236C65.7973 16.0223 64.7244 17.2928 63.5951 18.5492C62.4658 19.8055 61.3365 21.0337 60.1789 22.3042C59.0214 23.5747 57.8214 24.7181 56.6215 25.918L49.3656 33.1175C49.1868 33.428 48.848 33.9503 48.3492 34.6844C47.8552 35.4326 47.3187 36.2796 46.7399 37.2395C46.1612 38.1994 45.5824 39.2299 45.0318 40.331C44.4897 41.3856 44.0181 42.475 43.6202 43.5919C43.2591 44.5735 43.0312 45.599 42.9426 46.6411C42.8412 47.4802 43.0468 48.3275 43.5214 49.0268L43.719 48.8998C44.7072 48.1798 45.7941 47.347 46.9799 46.3729C48.1657 45.3989 49.3656 44.3966 50.5655 43.3237L51.1867 42.745C51.7597 41.0282 52.5219 39.3805 53.4594 37.8324C54.5123 36.0434 55.7727 34.385 57.2144 32.8916C58.4063 31.6075 59.8473 30.5797 61.4494 29.8706C62.0256 29.5592 62.6821 29.4277 63.3338 29.4931C63.9856 29.5585 64.6027 29.8179 65.1056 30.2377C65.9913 31.2414 66.4916 32.5272 66.5172 33.8656C66.5603 35.3062 66.3354 36.7422 65.8538 38.1006C65.2717 39.426 64.5725 40.6968 63.7645 41.898C62.8769 43.2499 61.8655 44.5164 60.7436 45.6812C59.6914 46.7994 58.4951 47.7725 57.1862 48.5751C56.0927 49.297 54.7961 49.6483 53.4877 49.5774C52.8788 49.6493 52.2648 49.4948 51.7624 49.1434C51.2601 48.792 50.9044 48.2682 50.7632 47.6716C50.5263 46.4034 50.594 45.0971 50.9608 43.8602C49.8597 44.8342 48.7586 45.8082 47.6152 46.7964C46.5511 47.7378 45.4391 48.6236 44.2837 49.4503L44.086 49.5774C43.5702 49.4365 43.1115 49.1373 42.7747 48.722C42.4379 48.3066 42.2399 47.7961 42.2085 47.2623C42.048 45.7377 42.1969 44.1965 42.6461 42.7308C43.2181 40.6609 43.9788 38.6479 44.9189 36.7172C46.0421 34.3787 47.2909 32.1026 48.6598 29.8989C50.0244 27.5273 51.5443 25.1981 53.2194 22.9112ZM60.8424 32.1858C60.3126 33.2595 59.8963 34.3855 59.6001 35.5455C59.2902 36.6656 59.1009 37.8155 59.0355 38.9758C58.942 39.7548 59.1056 40.5429 59.5013 41.2204C59.8589 41.7097 60.5083 41.6674 61.4494 41.0933C62.0183 40.1838 62.5321 39.241 62.9881 38.27C63.4172 37.3639 63.7576 36.4184 64.0045 35.4467C64.2209 34.6023 64.3346 33.735 64.3433 32.8634C64.3555 32.109 64.1706 31.3645 63.8069 30.7035C63.3975 29.9977 62.9316 29.8283 62.3952 30.2094C61.7321 30.7397 61.2007 31.4161 60.8424 32.1858ZM52.0478 47.4317C52.1325 48.2786 52.3725 48.8433 52.7536 48.9704C52.983 49.0583 53.2295 49.0926 53.4742 49.0706C53.7189 49.0486 53.9553 48.9708 54.1653 48.8433C54.8284 48.4963 55.4372 48.054 55.9722 47.5305C56.6215 46.9235 57.2568 46.3023 57.8638 45.653C58.4708 45.0036 58.9931 44.3825 59.4731 43.8037C59.953 43.2249 60.2636 42.8014 60.4471 42.5332C60.1137 42.623 59.7598 42.598 59.4423 42.4623C59.1248 42.3266 58.8622 42.0881 58.6967 41.785C58.3028 41.0073 58.1087 40.1437 58.132 39.2723C58.116 38.1182 58.2393 36.9665 58.499 35.842C58.7475 34.6721 59.1312 33.5351 59.6425 32.454C58.73 33.3581 57.9161 34.3566 57.2144 35.4326C56.3008 36.7977 55.462 38.2114 54.7017 39.6675C53.953 41.0715 53.2884 42.5186 52.7113 44.0013C52.2411 45.0822 52.0146 46.2534 52.0478 47.4317ZM51.102 30.3083C52.1748 29.1789 53.2618 28.0778 54.3347 27.005C55.4075 25.9321 56.4521 24.831 57.4827 23.7158C59.6425 21.4854 61.7176 19.2126 63.7645 16.9399C65.8114 14.6671 67.7595 12.2955 69.6511 9.8816C69.7568 9.8044 69.8477 9.70875 69.9193 9.59926L70.0464 9.33105C70.0719 9.24346 70.0719 9.15042 70.0464 9.06284V8.99225H69.7782H69.7076C69.7076 8.99225 69.5664 9.06283 69.4394 9.18988C65.8134 12.1577 62.4807 15.4667 59.4872 19.0715C56.4445 22.6257 53.6431 26.3797 51.102 30.3083ZM98.8583 67.096L97.1643 63.6798L95.4844 67.096L91.7012 67.6466L94.4398 70.3005L93.7905 74.0696L97.1643 72.2909L100.552 74.0696L99.9029 70.3005L102.642 67.6325L98.8583 67.096ZM85.2923 67.096L83.5983 63.6798L81.9043 67.096L78.1211 67.6466L80.8597 70.3005L80.2103 74.0696L83.5983 72.2909L86.9722 74.0696L86.3369 70.3005L89.0755 67.6325L85.2923 67.096ZM71.7121 67.096L70.0182 63.6798L68.3383 67.096L64.555 67.6466L67.2937 70.3005L66.6443 74.0696L70.0182 72.2909L73.4061 74.0696L72.7427 70.3005L75.566 67.6466L71.7121 67.096ZM112.438 67.096L110.744 63.6798L109.05 67.096L105.211 67.6466L108.034 70.3005L107.385 74.0696L110.773 72.2909L114.147 74.0696L113.483 70.3005L116.222 67.6325L112.438 67.096Z" fill="#D79E3E"/>
</svg>
